<svg width="258" height="80" viewBox="0 0 258 80" fill="none" xmlns="http://www.w3.org/2000/svg">
<path d="M58.8447 32.432C53.9007 23.3868 47.2708 15.3847 39.318 8.86543C33.4989 4.43231 28.3149 2.77822 25.4479 4.44563C22.5808 6.11115 21.4129 11.4617 22.3163 18.7538C23.9454 28.9487 27.5117 38.7305 32.8205 47.5662C37.7645 56.6133 44.3944 64.6154 52.3472 71.1328C58.1625 75.5697 63.3522 77.22 66.2173 75.5545C69.0825 73.889 70.2523 68.5384 69.3489 61.2463C67.7179 51.0496 64.1516 41.2658 58.8447 32.432ZM62.1162 30.5285C74.4177 51.986 77.0976 73.6225 68.1016 78.8532C59.1055 84.0838 41.8449 70.9272 29.5471 49.4678C17.2456 28.0122 14.5619 6.37763 23.5579 1.14697C32.554 -4.0837 49.8166 9.071 62.1162 30.5285Z" fill="#00F2FE"/>
<path d="M44.3736 25.1056C34.1661 24.8981 24.0096 26.6417 14.4447 30.2449C7.76572 33.0315 3.77987 36.6157 3.77987 39.8287C3.77987 43.0417 7.76572 46.6259 14.4447 49.4145C24.0096 53.0196 34.1661 54.7632 44.3736 54.5538C54.583 54.7613 64.7394 53.0177 74.3043 49.4145C80.9795 46.6259 84.9692 43.0417 84.9692 39.8287C84.9692 36.6157 80.9814 33.0334 74.3043 30.2468C64.7375 26.6417 54.583 24.8981 44.3736 25.1056ZM44.3736 21.2987C68.8821 21.2987 88.7471 29.5939 88.7471 39.8268C88.7471 50.0597 68.8802 58.3569 44.3736 58.3569C19.8669 58.3588 1.52588e-05 50.0636 1.52588e-05 39.8287C1.52588e-05 29.5939 19.8669 21.2987 44.3736 21.2987Z" fill="#00F2FE"/>
<path d="M58.8447 47.5662C64.1516 38.7304 67.7161 28.9486 69.3452 18.7518C70.2504 11.4597 69.0787 6.10915 66.2136 4.44363C63.3465 2.77621 58.1625 4.43031 52.3434 8.86343C44.3925 15.3827 37.7626 23.3848 32.8205 32.4319C27.5136 41.2696 23.9492 51.0514 22.32 61.2481C21.4148 68.5383 22.5884 73.8908 25.4516 75.5563C28.3149 77.2218 33.5027 75.5696 39.3218 71.1346C47.2727 64.6153 53.9026 56.6132 58.8447 47.5662ZM62.1162 49.4696C49.8166 70.9271 32.5521 84.0837 23.5579 78.8531C14.5638 73.6224 17.2456 51.9898 29.5471 30.5303C41.8467 9.07471 59.1074 -4.0838 68.1016 1.14687C77.0957 6.37753 74.4177 28.014 62.1162 49.4696Z" fill="#00F2FE"/>
<path d="M60.4568 24.784C63.6943 23.5506 67.3135 25.1952 68.5401 28.4596C69.485 30.9874 68.729 33.8425 66.6615 35.5613L66.5707 35.6375C63.9003 37.8607 63.5261 41.8389 65.7373 44.5285C65.9886 44.8368 66.2684 45.1185 66.5707 45.3717L66.7352 45.5049C69.4056 47.7262 69.7855 51.7063 67.5762 54.3959C65.879 56.4688 63.0536 57.2282 60.5513 56.2898L60.3567 56.2175C57.1098 54.9974 53.5 56.6591 52.2905 59.9254C52.1506 60.3023 52.0486 60.6849 51.9824 61.0789L51.9635 61.1988C51.3871 64.6402 48.1553 66.9548 44.7421 66.3819C42.0943 65.9327 40.0286 63.8389 39.5902 61.1741C39.0289 57.7326 35.8046 55.4066 32.3877 55.9739C31.9813 56.0386 31.5807 56.1471 31.197 56.2955C27.9577 57.5252 24.3385 55.8825 23.1176 52.6181C22.1707 50.0903 22.921 47.2332 24.9905 45.5163L25.0831 45.4383C27.7517 43.2189 28.1297 39.235 25.9184 36.5492C25.6652 36.2428 25.3874 35.9572 25.0831 35.706L24.9187 35.5728C22.2463 33.3495 21.8721 29.3694 24.0777 26.6837C25.7767 24.6108 28.6002 23.8475 31.1025 24.7878L31.2991 24.8621C34.5441 26.0822 38.1557 24.4186 39.3634 21.1504C39.5032 20.7773 39.6034 20.3909 39.6695 19.9988L39.6884 19.8789C40.2781 16.4412 43.5174 14.1305 46.9269 14.7205C49.5614 15.1716 51.6177 17.254 52.0561 19.8998C52.6212 23.3393 55.8435 25.671 59.2586 25.1038C59.6687 25.0353 60.0675 24.9287 60.4512 24.7821L60.4568 24.784Z" fill="#00F2FE"/>
<path d="M56.9737 37.141C58.1341 37.9843 58.4006 39.6174 57.5615 40.7899C57.397 41.0127 57.1986 41.2125 56.9737 41.3781L42.6613 51.788C41.5009 52.6275 39.8793 52.3686 39.0383 51.1942C38.7189 50.7526 38.5507 50.2139 38.5507 49.6638V28.8477C38.5507 27.403 39.713 26.2343 41.1456 26.2343C41.6899 26.2343 42.2209 26.4075 42.6651 26.7292L56.9737 37.141Z" fill="black"/>
<path d="M97.0771 38V6.05H111.207C112.677 6.05 114.027 6.35 115.257 6.95C116.517 7.55 117.597 8.36 118.497 9.38C119.427 10.4 120.132 11.54 120.612 12.8C121.122 14.06 121.377 15.35 121.377 16.67C121.377 18.02 121.137 19.325 120.657 20.585C120.207 21.815 119.547 22.895 118.677 23.825C117.807 24.755 116.787 25.475 115.617 25.985L122.907 38H116.067L109.497 27.29H103.287V38H97.0771ZM103.287 21.845H111.072C111.852 21.845 112.542 21.62 113.142 21.17C113.742 20.69 114.222 20.06 114.582 19.28C114.942 18.5 115.122 17.63 115.122 16.67C115.122 15.65 114.912 14.765 114.492 14.015C114.072 13.235 113.532 12.62 112.872 12.17C112.242 11.72 111.552 11.495 110.802 11.495H103.287V21.845ZM136.563 38.45C134.673 38.45 132.963 38.135 131.433 37.505C129.903 36.845 128.598 35.96 127.518 34.85C126.438 33.71 125.598 32.42 124.998 30.98C124.428 29.51 124.143 27.965 124.143 26.345C124.143 24.095 124.638 22.04 125.628 20.18C126.648 18.32 128.088 16.835 129.948 15.725C131.838 14.585 134.058 14.015 136.608 14.015C139.188 14.015 141.393 14.585 143.223 15.725C145.053 16.835 146.448 18.32 147.408 20.18C148.398 22.01 148.893 23.99 148.893 26.12C148.893 26.48 148.878 26.855 148.848 27.245C148.818 27.605 148.788 27.905 148.758 28.145H130.533C130.653 29.345 130.998 30.395 131.568 31.295C132.168 32.195 132.918 32.885 133.818 33.365C134.748 33.815 135.738 34.04 136.788 34.04C137.988 34.04 139.113 33.755 140.163 33.185C141.243 32.585 141.978 31.805 142.368 30.845L147.543 32.285C146.973 33.485 146.148 34.55 145.068 35.48C144.018 36.41 142.773 37.145 141.333 37.685C139.893 38.195 138.303 38.45 136.563 38.45ZM130.398 24.32H142.728C142.608 23.12 142.263 22.085 141.693 21.215C141.153 20.315 140.433 19.625 139.533 19.145C138.633 18.635 137.628 18.38 136.518 18.38C135.438 18.38 134.448 18.635 133.548 19.145C132.678 19.625 131.958 20.315 131.388 21.215C130.848 22.085 130.518 23.12 130.398 24.32ZM150.946 31.025C150.946 29.495 151.366 28.16 152.206 27.02C153.076 25.85 154.276 24.95 155.806 24.32C157.336 23.69 159.091 23.375 161.071 23.375C162.061 23.375 163.066 23.45 164.086 23.6C165.106 23.75 165.991 23.99 166.741 24.32V23.06C166.741 21.56 166.291 20.405 165.391 19.595C164.521 18.785 163.216 18.38 161.476 18.38C160.186 18.38 158.956 18.605 157.786 19.055C156.616 19.505 155.386 20.165 154.096 21.035L152.161 17.075C153.721 16.055 155.311 15.29 156.931 14.78C158.581 14.27 160.306 14.015 162.106 14.015C165.466 14.015 168.076 14.855 169.936 16.535C171.826 18.215 172.771 20.615 172.771 23.735V31.25C172.771 31.88 172.876 32.33 173.086 32.6C173.326 32.87 173.701 33.035 174.211 33.095V38C173.671 38.09 173.176 38.165 172.726 38.225C172.306 38.285 171.946 38.315 171.646 38.315C170.446 38.315 169.531 38.045 168.901 37.505C168.301 36.965 167.926 36.305 167.776 35.525L167.641 34.31C166.621 35.63 165.346 36.65 163.816 37.37C162.286 38.09 160.726 38.45 159.136 38.45C157.576 38.45 156.166 38.135 154.906 37.505C153.676 36.845 152.701 35.96 151.981 34.85C151.291 33.71 150.946 32.435 150.946 31.025ZM165.616 32.24C165.946 31.88 166.216 31.52 166.426 31.16C166.636 30.8 166.741 30.47 166.741 30.17V27.785C166.021 27.485 165.241 27.26 164.401 27.11C163.561 26.93 162.766 26.84 162.016 26.84C160.456 26.84 159.166 27.185 158.146 27.875C157.156 28.535 156.661 29.42 156.661 30.53C156.661 31.13 156.826 31.7 157.156 32.24C157.486 32.78 157.966 33.215 158.596 33.545C159.226 33.875 159.976 34.04 160.846 34.04C161.746 34.04 162.631 33.875 163.501 33.545C164.371 33.185 165.076 32.75 165.616 32.24ZM189.386 38.45C187.466 38.45 185.741 38.135 184.211 37.505C182.681 36.845 181.376 35.945 180.296 34.805C179.216 33.635 178.376 32.315 177.776 30.845C177.206 29.375 176.921 27.83 176.921 26.21C176.921 23.99 177.416 21.965 178.406 20.135C179.426 18.275 180.866 16.79 182.726 15.68C184.586 14.57 186.791 14.015 189.341 14.015C191.891 14.015 194.081 14.57 195.911 15.68C197.741 16.79 199.106 18.245 200.006 20.045L194.111 21.845C193.601 20.975 192.926 20.315 192.086 19.865C191.246 19.385 190.316 19.145 189.296 19.145C188.156 19.145 187.106 19.445 186.146 20.045C185.216 20.615 184.481 21.44 183.941 22.52C183.401 23.57 183.131 24.8 183.131 26.21C183.131 27.59 183.401 28.82 183.941 29.9C184.511 30.95 185.261 31.79 186.191 32.42C187.121 33.02 188.156 33.32 189.296 33.32C190.016 33.32 190.691 33.2 191.321 32.96C191.981 32.72 192.566 32.39 193.076 31.97C193.586 31.55 193.961 31.07 194.201 30.53L200.096 32.33C199.556 33.5 198.761 34.55 197.711 35.48C196.691 36.41 195.476 37.145 194.066 37.685C192.686 38.195 191.126 38.45 189.386 38.45ZM217.937 36.785C217.427 36.995 216.812 37.235 216.092 37.505C215.372 37.775 214.592 37.985 213.752 38.135C212.942 38.315 212.117 38.405 211.277 38.405C210.167 38.405 209.147 38.21 208.217 37.82C207.287 37.43 206.537 36.815 205.967 35.975C205.427 35.105 205.157 33.98 205.157 32.6V19.055H202.052V14.42H205.157V6.77H211.187V14.42H216.137V19.055H211.187V30.575C211.217 31.385 211.442 31.97 211.862 32.33C212.282 32.69 212.807 32.87 213.437 32.87C214.067 32.87 214.682 32.765 215.282 32.555C215.882 32.345 216.362 32.165 216.722 32.015L217.937 36.785Z" fill="#00F3FF"/>
<path d="M97.0771 80V48.095H103.287V63.26L116.697 48.05H123.537L111.297 62.225L124.302 80H117.282L107.337 66.23L103.287 70.46V80H97.0771ZM135.903 80.45C133.983 80.45 132.258 80.135 130.728 79.505C129.198 78.845 127.893 77.945 126.813 76.805C125.763 75.665 124.953 74.36 124.383 72.89C123.813 71.42 123.528 69.875 123.528 68.255C123.528 66.605 123.813 65.045 124.383 63.575C124.953 62.105 125.763 60.8 126.813 59.66C127.893 58.52 129.198 57.635 130.728 57.005C132.258 56.345 133.983 56.015 135.903 56.015C137.823 56.015 139.533 56.345 141.033 57.005C142.563 57.635 143.868 58.52 144.948 59.66C146.028 60.8 146.838 62.105 147.378 63.575C147.948 65.045 148.233 66.605 148.233 68.255C148.233 69.875 147.948 71.42 147.378 72.89C146.838 74.36 146.028 75.665 144.948 76.805C143.898 77.945 142.608 78.845 141.078 79.505C139.548 80.135 137.823 80.45 135.903 80.45ZM129.738 68.255C129.738 69.635 130.008 70.865 130.548 71.945C131.088 72.995 131.823 73.82 132.753 74.42C133.683 75.02 134.733 75.32 135.903 75.32C137.043 75.32 138.078 75.02 139.008 74.42C139.938 73.79 140.673 72.95 141.213 71.9C141.783 70.82 142.068 69.59 142.068 68.21C142.068 66.86 141.783 65.645 141.213 64.565C140.673 63.485 139.938 62.645 139.008 62.045C138.078 61.445 137.043 61.145 135.903 61.145C134.733 61.145 133.683 61.46 132.753 62.09C131.823 62.69 131.088 63.53 130.548 64.61C130.008 65.66 129.738 66.875 129.738 68.255ZM152.258 47.15H158.288V72.44C158.288 73.52 158.468 74.255 158.828 74.645C159.188 75.005 159.683 75.185 160.313 75.185C160.793 75.185 161.288 75.125 161.798 75.005C162.308 74.885 162.758 74.735 163.148 74.555L163.958 79.145C163.148 79.535 162.203 79.835 161.123 80.045C160.043 80.255 159.068 80.36 158.198 80.36C156.308 80.36 154.838 79.865 153.788 78.875C152.768 77.855 152.258 76.415 152.258 74.555V47.15ZM182.695 80L175.81 69.83L172.615 72.98V80H166.585V47.15H172.615V67.04L182.11 56.465H188.5L179.725 66.455L189.13 80H182.695ZM189.838 73.025C189.838 71.495 190.258 70.16 191.098 69.02C191.968 67.85 193.168 66.95 194.698 66.32C196.228 65.69 197.983 65.375 199.963 65.375C200.953 65.375 201.958 65.45 202.978 65.6C203.998 65.75 204.883 65.99 205.633 66.32V65.06C205.633 63.56 205.183 62.405 204.283 61.595C203.413 60.785 202.108 60.38 200.368 60.38C199.078 60.38 197.848 60.605 196.678 61.055C195.508 61.505 194.278 62.165 192.988 63.035L191.053 59.075C192.613 58.055 194.203 57.29 195.823 56.78C197.473 56.27 199.198 56.015 200.998 56.015C204.358 56.015 206.968 56.855 208.828 58.535C210.718 60.215 211.663 62.615 211.663 65.735V73.25C211.663 73.88 211.768 74.33 211.978 74.6C212.218 74.87 212.593 75.035 213.103 75.095V80C212.563 80.09 212.068 80.165 211.618 80.225C211.198 80.285 210.838 80.315 210.538 80.315C209.338 80.315 208.423 80.045 207.793 79.505C207.193 78.965 206.818 78.305 206.668 77.525L206.533 76.31C205.513 77.63 204.238 78.65 202.708 79.37C201.178 80.09 199.618 80.45 198.028 80.45C196.468 80.45 195.058 80.135 193.798 79.505C192.568 78.845 191.593 77.96 190.873 76.85C190.183 75.71 189.838 74.435 189.838 73.025ZM204.508 74.24C204.838 73.88 205.108 73.52 205.318 73.16C205.528 72.8 205.633 72.47 205.633 72.17V69.785C204.913 69.485 204.133 69.26 203.293 69.11C202.453 68.93 201.658 68.84 200.908 68.84C199.348 68.84 198.058 69.185 197.038 69.875C196.048 70.535 195.553 71.42 195.553 72.53C195.553 73.13 195.718 73.7 196.048 74.24C196.378 74.78 196.858 75.215 197.488 75.545C198.118 75.875 198.868 76.04 199.738 76.04C200.638 76.04 201.523 75.875 202.393 75.545C203.263 75.185 203.968 74.75 204.508 74.24ZM231.208 78.785C230.698 78.995 230.083 79.235 229.363 79.505C228.643 79.775 227.863 79.985 227.023 80.135C226.213 80.315 225.388 80.405 224.548 80.405C223.438 80.405 222.418 80.21 221.488 79.82C220.558 79.43 219.808 78.815 219.238 77.975C218.698 77.105 218.428 75.98 218.428 74.6V61.055H215.323V56.42H218.428V48.77H224.458V56.42H229.408V61.055H224.458V72.575C224.488 73.385 224.713 73.97 225.133 74.33C225.553 74.69 226.078 74.87 226.708 74.87C227.338 74.87 227.953 74.765 228.553 74.555C229.153 74.345 229.633 74.165 229.993 74.015L231.208 78.785ZM232.729 73.025C232.729 71.495 233.149 70.16 233.989 69.02C234.859 67.85 236.059 66.95 237.589 66.32C239.119 65.69 240.874 65.375 242.854 65.375C243.844 65.375 244.849 65.45 245.869 65.6C246.889 65.75 247.774 65.99 248.524 66.32V65.06C248.524 63.56 248.074 62.405 247.174 61.595C246.304 60.785 244.999 60.38 243.259 60.38C241.969 60.38 240.739 60.605 239.569 61.055C238.399 61.505 237.169 62.165 235.879 63.035L233.944 59.075C235.504 58.055 237.094 57.29 238.714 56.78C240.364 56.27 242.089 56.015 243.889 56.015C247.249 56.015 249.859 56.855 251.719 58.535C253.609 60.215 254.554 62.615 254.554 65.735V73.25C254.554 73.88 254.659 74.33 254.869 74.6C255.109 74.87 255.484 75.035 255.994 75.095V80C255.454 80.09 254.959 80.165 254.509 80.225C254.089 80.285 253.729 80.315 253.429 80.315C252.229 80.315 251.314 80.045 250.684 79.505C250.084 78.965 249.709 78.305 249.559 77.525L249.424 76.31C248.404 77.63 247.129 78.65 245.599 79.37C244.069 80.09 242.509 80.45 240.919 80.45C239.359 80.45 237.949 80.135 236.689 79.505C235.459 78.845 234.484 77.96 233.764 76.85C233.074 75.71 232.729 74.435 232.729 73.025ZM247.399 74.24C247.729 73.88 247.999 73.52 248.209 73.16C248.419 72.8 248.524 72.47 248.524 72.17V69.785C247.804 69.485 247.024 69.26 246.184 69.11C245.344 68.93 244.549 68.84 243.799 68.84C242.239 68.84 240.949 69.185 239.929 69.875C238.939 70.535 238.444 71.42 238.444 72.53C238.444 73.13 238.609 73.7 238.939 74.24C239.269 74.78 239.749 75.215 240.379 75.545C241.009 75.875 241.759 76.04 242.629 76.04C243.529 76.04 244.414 75.875 245.284 75.545C246.154 75.185 246.859 74.75 247.399 74.24Z" fill="white"/>
</svg>
